<?xml version="1.0" encoding="utf-8"?>
<!-- Generator: Adobe Illustrator 15.1.0, SVG Export Plug-In . SVG Version: 6.00 Build 0)  -->
<!DOCTYPE svg PUBLIC "-//W3C//DTD SVG 1.1//EN" "http://www.w3.org/Graphics/SVG/1.1/DTD/svg11.dtd">
<svg version="1.1" id="Layer_1" xmlns="http://www.w3.org/2000/svg" xmlns:xlink="http://www.w3.org/1999/xlink" x="0px" y="0px"
	 width="221px" height="56px" viewBox="0 0 221 56" enable-background="new 0 0 221 56" xml:space="preserve">
<polygon fill="#6699CC" points="163.784,25.558 171.486,13.563 179.148,25.558 187.208,25.558 171.544,0.893 155.835,25.558 "/>
<polygon fill="#6699CC" points="144.232,56 159.941,31.541 152.023,31.541 136.443,56 "/>
<polygon fill="#6699CC" points="206.541,56 191.008,31.541 182.973,31.541 198.602,56 "/>
<path fill="#6699CC" d="M14.589,55.49v-1.285c-0.408,0.448-1.1,0.84-2.073,1.176c-0.975,0.335-1.981,0.503-3.021,0.503
	c-2.948,0-5.267-0.935-6.958-2.804S0,48.605,0,45.263s0.971-6.063,2.911-8.163c1.941-2.1,4.374-3.148,7.296-3.148
	c1.604,0,3.065,0.33,4.382,0.987V26.47l4.935-1.184V55.49H14.589L14.589,55.49z M14.589,39.399
	c-1.053-0.842-2.153-1.264-3.297-1.264c-1.975,0-3.495,0.602-4.56,1.807c-1.066,1.204-1.6,2.933-1.6,5.183
	c0,4.396,2.12,6.593,6.357,6.593c0.474,0,1.056-0.142,1.748-0.425c0.69-0.282,1.142-0.569,1.353-0.858L14.589,39.399L14.589,39.399z
	"/>
<path fill="#6699CC" d="M43.333,46.428H28.23c0.092,1.685,0.671,2.995,1.737,3.929c1.066,0.935,2.501,1.401,4.304,1.401
	c2.25,0,3.961-0.585,5.133-1.758l1.915,3.771c-1.737,1.409-4.33,2.112-7.778,2.112c-3.225,0-5.775-0.944-7.649-2.833
	c-1.876-1.889-2.813-4.524-2.813-7.907c0-3.33,1.029-6.026,3.089-8.093c2.06-2.067,4.531-3.102,7.414-3.102
	c3.066,0,5.528,0.916,7.384,2.745c1.855,1.83,2.784,4.159,2.784,6.988C43.748,44.289,43.609,45.203,43.333,46.428z M28.408,42.716
	h10.384c-0.343-3.093-2.054-4.64-5.133-4.64C30.843,38.076,29.092,39.623,28.408,42.716z"/>
<path fill="#6699CC" d="M59.462,53.375c-0.448,0.737-1.228,1.341-2.339,1.808c-1.113,0.467-2.274,0.701-3.484,0.701
	c-2.277,0-4.067-0.569-5.37-1.708c-1.303-1.139-1.955-2.754-1.955-4.848c0-2.447,0.918-4.362,2.754-5.746
	c1.836-1.381,4.445-2.071,7.828-2.071c0.579,0,1.263,0.099,2.052,0.296c0-2.488-1.573-3.732-4.717-3.732
	c-1.856,0-3.409,0.311-4.66,0.93l-1.065-3.831c1.697-0.815,3.718-1.226,6.061-1.226c3.225,0,5.587,0.734,7.087,2.202
	s2.25,4.248,2.25,8.341v4.521c0,2.816,0.566,4.586,1.698,5.311c-0.409,0.711-0.863,1.148-1.363,1.313s-1.073,0.247-1.717,0.247
	c-0.711,0-1.349-0.265-1.916-0.79C60.041,54.567,59.659,53.996,59.462,53.375z M58.987,45.539c-0.841-0.172-1.473-0.258-1.895-0.258
	c-3.896,0-5.844,1.277-5.844,3.83c0,1.896,1.1,2.844,3.297,2.844c2.961,0,4.441-1.48,4.441-4.442L58.987,45.539L58.987,45.539z"/>
<path fill="#6699CC" d="M70.083,26.469l4.935-1.184v23.769c0,2.604,0.777,4.159,2.33,4.659c-0.764,1.447-2.067,2.172-3.909,2.172
	c-2.238,0-3.356-1.553-3.356-4.659V26.469z"/>
<path fill="#6699CC" d="M100.031,46.428H84.928c0.093,1.685,0.671,2.995,1.738,3.929c1.066,0.935,2.501,1.401,4.305,1.401
	c2.249,0,3.961-0.585,5.132-1.758l1.915,3.771c-1.737,1.409-4.33,2.112-7.778,2.112c-3.226,0-5.775-0.944-7.65-2.833
	c-1.876-1.889-2.813-4.524-2.813-7.907c0-3.33,1.029-6.026,3.09-8.093c2.059-2.067,4.53-3.102,7.413-3.102
	c3.066,0,5.528,0.916,7.383,2.745c1.855,1.83,2.784,4.159,2.784,6.988C100.446,44.289,100.308,45.203,100.031,46.428z
	 M85.107,42.716h10.384c-0.342-3.093-2.053-4.64-5.133-4.64C87.541,38.076,85.791,39.623,85.107,42.716z"/>
<path fill="#6699CC" d="M116.613,38.945c-0.881-0.578-1.848-0.869-2.901-0.869c-1.144,0-2.162,0.521-3.05,1.561
	c-0.889,1.04-1.332,2.311-1.332,3.813V55.49h-4.935V34.346h4.935v1.936c1.381-1.554,3.218-2.332,5.508-2.332
	c1.686,0,2.975,0.258,3.869,0.771L116.613,38.945z"/>
<path fill="#6699CC" d="M120.365,54.127l1.758-3.93c1.475,1.172,3.139,1.758,4.994,1.758c1.921,0,2.882-0.685,2.882-2.054
	c0-0.802-0.29-1.461-0.869-1.975c-0.579-0.513-1.705-1.118-3.376-1.816c-3.645-1.514-5.468-3.632-5.468-6.356
	c0-1.829,0.698-3.254,2.093-4.274s3.18-1.53,5.35-1.53c2.197,0,4.265,0.494,6.198,1.48l-1.42,3.831
	c-1.08-0.923-2.58-1.382-4.501-1.382c-1.725,0-2.586,0.684-2.586,2.053c0,0.54,0.282,1.027,0.85,1.461
	c0.564,0.436,1.775,1.018,3.631,1.748c1.856,0.73,3.191,1.615,4.008,2.654s1.225,2.297,1.225,3.771c0,1.961-0.729,3.504-2.182,4.629
	c-1.455,1.125-3.432,1.688-5.932,1.688c-1.408,0-2.537-0.116-3.387-0.346C122.783,55.309,121.693,54.838,120.365,54.127z"/>
<path fill="#6699CC" d="M194.816,31.096V13.602h-2.768V9.46h7.878v21.635H194.816z M197.423,1.077c0.81,0,1.498,0.286,2.071,0.859
	c0.572,0.573,0.857,1.262,0.857,2.07c0,0.809-0.285,1.499-0.857,2.071c-0.574,0.573-1.264,0.858-2.071,0.858
	s-1.498-0.285-2.071-0.858c-0.572-0.572-0.857-1.262-0.857-2.071c0-0.808,0.285-1.497,0.857-2.07
	C195.925,1.362,196.615,1.077,197.423,1.077z"/>
<path fill="#6699CC" d="M218.311,14.167c-0.902-0.592-1.892-0.889-2.969-0.889c-1.172,0-2.212,0.532-3.121,1.596
	c-0.908,1.064-1.363,2.363-1.363,3.899v12.323h-5.051V9.46h5.051v1.979c1.414-1.588,3.291-2.384,5.636-2.384
	c1.724,0,3.043,0.263,3.959,0.788L218.311,14.167z"/>
</svg>
