<?xml version="1.0" encoding="utf-8"?><!DOCTYPE svg PUBLIC "-//W3C//DTD SVG 1.1//EN" "http://www.w3.org/Graphics/SVG/1.1/DTD/svg11.dtd"><svg width="2192" height="2028" viewBox="0 0 2192 2028" xmlns="http://www.w3.org/2000/svg" xmlns:xlink="http://www.w3.org/1999/xlink"><view id="angle-down" viewBox="596 532 340 532"/><svg viewBox="-10 -10 340 532" width="340" height="532" x="596" y="532" xmlns="http://www.w3.org/2000/svg"><path fill="#69c" d="M143 352.3L7 216.3c-9.4-9.4-9.4-24.6 0-33.9l22.6-22.6c9.4-9.4 24.6-9.4 33.9 0l96.4 96.4 96.4-96.4c9.4-9.4 24.6-9.4 33.9 0l22.6 22.6c9.4 9.4 9.4 24.6 0 33.9l-136 136c-9.2 9.4-24.4 9.4-33.8 0z"/></svg><view id="arrow-alt-circle-down" viewBox="0 1064 532 532"/><svg viewBox="-10 -10 532 532" width="532" height="532" y="1064" xmlns="http://www.w3.org/2000/svg"><path d="M504 256c0 137-111 248-248 248S8 393 8 256 119 8 256 8s248 111 248 248zM212 140v116h-70.9c-10.7 0-16.1 13-8.5 20.5l114.9 114.3c4.7 4.7 12.2 4.7 16.9 0l114.9-114.3c7.6-7.6 2.2-20.5-8.5-20.5H300V140c0-6.6-5.4-12-12-12h-64c-6.6 0-12 5.4-12 12z"/></svg><view id="arrow-right" viewBox="1192 0 468 532"/><svg viewBox="-10 -10 468 532" width="468" height="532" x="1192" xmlns="http://www.w3.org/2000/svg"><path fill="#fff" d="M190.5 66.9l22.2-22.2c9.4-9.4 24.6-9.4 33.9 0L441 239c9.4 9.4 9.4 24.6 0 33.9L246.6 467.3c-9.4 9.4-24.6 9.4-33.9 0l-22.2-22.2c-9.5-9.5-9.3-25 .4-34.3L311.4 296H24c-13.3 0-24-10.7-24-24v-32c0-13.3 10.7-24 24-24h287.4L190.9 101.2c-9.8-9.3-10-24.8-.4-34.3z"/></svg><view id="check" viewBox="0 1596 432 432"/><svg width="432" height="432" viewBox="-68.5 -68.5 432 432" y="1596" xmlns="http://www.w3.org/2000/svg"><path fill="#115499" d="M293.203 87.246L134.766 245.684c-4.395 4.395-10.254 6.797-16.465 6.797s-12.07-2.461-16.465-6.797L6.797 150.645c-9.082-9.082-9.082-23.848 0-32.871 9.082-9.082 23.848-9.082 32.93 0l78.574 78.516L260.215 54.316c9.082-9.082 23.848-9.082 32.871 0 9.199 9.141 9.199 23.848.117 32.93z"/></svg><view id="exclamation-triangle" viewBox="0 532 596 532"/><svg viewBox="-10 -10 596 532" width="596" height="532" y="532" xmlns="http://www.w3.org/2000/svg"><path fill="#FFC775" d="M569.517 440.013C587.975 472.007 564.806 512 527.94 512H48.054c-36.937 0-59.999-40.055-41.577-71.987L246.423 23.985c18.467-32.009 64.72-31.951 83.154 0l239.94 416.028zM288 354c-25.405 0-46 20.595-46 46s20.595 46 46 46 46-20.595 46-46-20.595-46-46-46zm-43.673-165.346l7.418 136c.347 6.364 5.609 11.346 11.982 11.346h48.546c6.373 0 11.635-4.982 11.982-11.346l7.418-136c.375-6.874-5.098-12.654-11.982-12.654h-63.383c-6.884 0-12.356 5.78-11.981 12.654z"/></svg><view id="facebook" viewBox="1192 532 468 532"/><svg viewBox="-10 -10 468 532" width="468" height="532" x="1192" y="532" xmlns="http://www.w3.org/2000/svg"><path d="M448 56.7v398.5c0 13.7-11.1 24.7-24.7 24.7H309.1V306.5h58.2l8.7-67.6h-67v-43.2c0-19.6 5.4-32.9 33.5-32.9h35.8v-60.5c-6.2-.8-27.4-2.7-52.2-2.7-51.6 0-87 31.5-87 89.4v49.9h-58.4v67.6h58.4V480H24.7C11.1 480 0 468.9 0 455.3V56.7C0 43.1 11.1 32 24.7 32h398.5c13.7 0 24.8 11.1 24.8 24.7z"/></svg><view id="github" viewBox="1660 1064 516 532"/><svg viewBox="-10 -10 516 532" width="516" height="532" x="1660" y="1064" xmlns="http://www.w3.org/2000/svg"><path fill="#fff" d="M165.9 397.4c0 2-2.3 3.6-5.2 3.6-3.3.3-5.6-1.3-5.6-3.6 0-2 2.3-3.6 5.2-3.6 3-.3 5.6 1.3 5.6 3.6zm-31.1-4.5c-.7 2 1.3 4.3 4.3 4.9 2.6 1 5.6 0 6.2-2s-1.3-4.3-4.3-5.2c-2.6-.7-5.5.3-6.2 2.3zm44.2-1.7c-2.9.7-4.9 2.6-4.6 4.9.3 2 2.9 3.3 5.9 2.6 2.9-.7 4.9-2.6 4.6-4.6-.3-1.9-3-3.2-5.9-2.9zM244.8 8C106.1 8 0 113.3 0 252c0 110.9 69.8 205.8 169.5 239.2 12.8 2.3 17.3-5.6 17.3-12.1 0-6.2-.3-40.4-.3-61.4 0 0-70 15-84.7-29.8 0 0-11.4-29.1-27.8-36.6 0 0-22.9-15.7 1.6-15.4 0 0 24.9 2 38.6 25.8 21.9 38.6 58.6 27.5 72.9 20.9 2.3-16 8.8-27.1 16-33.7-55.9-6.2-112.3-14.3-112.3-110.5 0-27.5 7.6-41.3 23.6-58.9-2.6-6.5-11.1-33.3 2.6-67.9 20.9-6.5 69 27 69 27 20-5.6 41.5-8.5 62.8-8.5s42.8 2.9 62.8 8.5c0 0 48.1-33.6 69-27 13.7 34.7 5.2 61.4 2.6 67.9 16 17.7 25.8 31.5 25.8 58.9 0 96.5-58.9 104.2-114.8 110.5 9.2 7.9 17 22.9 17 46.4 0 33.7-.3 75.4-.3 83.6 0 6.5 4.6 14.4 17.3 12.1C428.2 457.8 496 362.9 496 252 496 113.3 383.5 8 244.8 8zM97.2 352.9c-1.3 1-1 3.3.7 5.2 1.6 1.6 3.9 2.3 5.2 1 1.3-1 1-3.3-.7-5.2-1.6-1.6-3.9-2.3-5.2-1zm-10.8-8.1c-.7 1.3.3 2.9 2.3 3.9 1.6 1 3.6.7 4.3-.7.7-1.3-.3-2.9-2.3-3.9-2-.6-3.6-.3-4.3.7zm32.4 35.6c-1.6 1.3-1 4.3 1.3 6.2 2.3 2.3 5.2 2.6 6.5 1 1.3-1.3.7-4.3-1.3-6.2-2.2-2.3-5.2-2.6-6.5-1zm-11.4-14.7c-1.6 1-1.6 3.6 0 5.9 1.6 2.3 4.3 3.3 5.6 2.3 1.6-1.3 1.6-3.9 0-6.2-1.4-2.3-4-3.3-5.6-2z"/></svg><view id="odnoklassniki" viewBox="532 1064 340 532"/><svg viewBox="-10 -10 340 532" width="340" height="532" x="532" y="1064" xmlns="http://www.w3.org/2000/svg"><path d="M275.1 334c-27.4 17.4-65.1 24.3-90 26.9l20.9 20.6 76.3 76.3c27.9 28.6-17.5 73.3-45.7 45.7-19.1-19.4-47.1-47.4-76.3-76.6L84 503.4c-28.2 27.5-73.6-17.6-45.4-45.7 19.4-19.4 47.1-47.4 76.3-76.3l20.6-20.6c-24.6-2.6-62.9-9.1-90.6-26.9-32.6-21-46.9-33.3-34.3-59 7.4-14.6 27.7-26.9 54.6-5.7 0 0 36.3 28.9 94.9 28.9s94.9-28.9 94.9-28.9c26.9-21.1 47.1-8.9 54.6 5.7 12.4 25.7-1.9 38-34.5 59.1zM30.3 129.7C30.3 58 88.6 0 160 0s129.7 58 129.7 129.7c0 71.4-58.3 129.4-129.7 129.4s-129.7-58-129.7-129.4zm66 0c0 35.1 28.6 63.7 63.7 63.7s63.7-28.6 63.7-63.7c0-35.4-28.6-64-63.7-64s-63.7 28.6-63.7 64z"/></svg><view id="plus-circle" viewBox="872 1064 532 532"/><svg viewBox="-10 -10 532 532" width="532" height="532" x="872" y="1064" xmlns="http://www.w3.org/2000/svg"><path fill="#fff" d="M256 8C119 8 8 119 8 256s111 248 248 248 248-111 248-248S393 8 256 8zm144 276c0 6.6-5.4 12-12 12h-92v92c0 6.6-5.4 12-12 12h-56c-6.6 0-12-5.4-12-12v-92h-92c-6.6 0-12-5.4-12-12v-56c0-6.6 5.4-12 12-12h92v-92c0-6.6 5.4-12 12-12h56c6.6 0 12 5.4 12 12v92h92c6.6 0 12 5.4 12 12v56z"/></svg><view id="search" viewBox="1660 0 532 532"/><svg viewBox="-10 -10 532 532" width="532" height="532" x="1660" xmlns="http://www.w3.org/2000/svg"><path d="M505 442.7L405.3 343c-4.5-4.5-10.6-7-17-7H372c27.6-35.3 44-79.7 44-128C416 93.1 322.9 0 208 0S0 93.1 0 208s93.1 208 208 208c48.3 0 92.7-16.4 128-44v16.3c0 6.4 2.5 12.5 7 17l99.7 99.7c9.4 9.4 24.6 9.4 33.9 0l28.3-28.3c9.4-9.4 9.4-24.6.1-34zM208 336c-70.7 0-128-57.2-128-128 0-70.7 57.2-128 128-128 70.7 0 128 57.2 128 128 0 70.7-57.2 128-128 128z"/></svg><view id="twitter" viewBox="1660 532 532 532"/><svg viewBox="-10 -10 532 532" width="532" height="532" x="1660" y="532" xmlns="http://www.w3.org/2000/svg"><path d="M459.37 151.716c.325 4.548.325 9.097.325 13.645 0 138.72-105.583 298.558-298.558 298.558-59.452 0-114.68-17.219-161.137-47.106 8.447.974 16.568 1.299 25.34 1.299 49.055 0 94.213-16.568 130.274-44.832-46.132-.975-84.792-31.188-98.112-72.772 6.498.974 12.995 1.624 19.818 1.624 9.421 0 18.843-1.3 27.614-3.573-48.081-9.747-84.143-51.98-84.143-102.985v-1.299c13.969 7.797 30.214 12.67 47.431 13.319-28.264-18.843-46.781-51.005-46.781-87.391 0-19.492 5.197-37.36 14.294-52.954 51.655 63.675 129.3 105.258 216.365 109.807-1.624-7.797-2.599-15.918-2.599-24.04 0-57.828 46.782-104.934 104.934-104.934 30.213 0 57.502 12.67 76.67 33.137 23.715-4.548 46.456-13.32 66.599-25.34-7.798 24.366-24.366 44.833-46.132 57.827 21.117-2.273 41.584-8.122 60.426-16.243-14.292 20.791-32.161 39.308-52.628 54.253z"/></svg><view id="vk" viewBox="596 0 596 532"/><svg viewBox="-10 -10 596 532" width="596" height="532" x="596" xmlns="http://www.w3.org/2000/svg"><path d="M545 117.7c3.7-12.5 0-21.7-17.8-21.7h-58.9c-15 0-21.9 7.9-25.6 16.7 0 0-30 73.1-72.4 120.5-13.7 13.7-20 18.1-27.5 18.1-3.7 0-9.4-4.4-9.4-16.9V117.7c0-15-4.2-21.7-16.6-21.7h-92.6c-9.4 0-15 7-15 13.5 0 14.2 21.2 17.5 23.4 57.5v86.8c0 19-3.4 22.5-10.9 22.5-20 0-68.6-73.4-97.4-157.4-5.8-16.3-11.5-22.9-26.6-22.9H38.8c-16.8 0-20.2 7.9-20.2 16.7 0 15.6 20 93.1 93.1 195.5C160.4 378.1 229 416 291.4 416c37.5 0 42.1-8.4 42.1-22.9 0-66.8-3.4-73.1 15.4-73.1 8.7 0 23.7 4.4 58.7 38.1 40 40 46.6 57.9 69 57.9h58.9c16.8 0 25.3-8.4 20.4-25-11.2-34.9-86.9-106.7-90.3-111.5-8.7-11.2-6.2-16.2 0-26.2.1-.1 72-101.3 79.4-135.6z"/></svg><view id="youtube" viewBox="0 0 596 532"/><svg viewBox="-10 -10 596 532" width="596" height="532" xmlns="http://www.w3.org/2000/svg"><path fill="#fff" d="M200 150h200v200H200z"/><path fill="red" d="M549.655 124.083c-6.281-23.65-24.787-42.276-48.284-48.597C458.781 64 288 64 288 64S117.22 64 74.629 75.486c-23.497 6.322-42.003 24.947-48.284 48.597-11.412 42.867-11.412 132.305-11.412 132.305s0 89.438 11.412 132.305c6.281 23.65 24.787 41.5 48.284 47.821C117.22 448 288 448 288 448s170.78 0 213.371-11.486c23.497-6.321 42.003-24.171 48.284-47.821 11.412-42.867 11.412-132.305 11.412-132.305s0-89.438-11.412-132.305zm-317.51 213.508V175.185l142.739 81.205-142.739 81.201z"/></svg></svg>